<?xml version="1.0" ?><!DOCTYPE svg  PUBLIC '-//W3C//DTD SVG 1.1//EN'  'http://www.w3.org/Graphics/SVG/1.1/DTD/svg11.dtd'><svg enable-background="new 0 0 128 128" height="128px" id="Layer_1" version="1.1" viewBox="0 0 128 128" width="128px" xml:space="preserve" xmlns="http://www.w3.org/2000/svg" xmlns:xlink="http://www.w3.org/1999/xlink"><path d="M115.212,79.395c-4.021-6.17-18.795-14.98-27.288-19.708c-0.979-2.131-2.316-4.103-4.021-5.811  c-0.123-0.123-0.262-0.22-0.404-0.304l0.021-0.174c0.986-1.527,1.465-3.129,1.693-4.399c1.66-0.22,3.6-1.237,4.26-2.67  c0.479-1.04,0.981-2.234,1.461-3.377c0.506-1.204,0.983-2.341,1.366-3.13c1.554-3.205,1.822-5.901,0.8-8.014  c-0.531-1.095-1.304-1.813-2.014-2.275c0.439-4.463-0.809-9.183-1.126-10.288c-0.593-7.885-4.771-14.134-9.989-14.9L79.688,4.3  c-2.972-0.517-4.459-2.036-4.506-2.084c-0.148-0.163-0.324-0.299-0.518-0.404C72.457,0.609,70.07,0,67.572,0  c-4.913,0-8.584,2.381-8.665,2.436c-13.178,7.885-13.511,20.873-13.214,25.23c-2.822,2.261-2.351,7.653-2.277,8.349  c0.005,0.053,0.013,0.106,0.023,0.159c0.472,2.511,1.854,9.86,5.979,10.692c0.029,2.983,0.782,4.671,1.463,5.588v0.21  c-4.636,0.889-7.961,3.489-9.711,7.464C30.636,65.092,15.722,72.924,11.4,79.275c-6.749,9.918-7.377,45.197-7.4,46.693  c-0.009,0.536,0.198,1.053,0.574,1.436C4.95,127.786,5.464,128,6,128h116c0.551,0,1.078-0.229,1.456-0.629  c0.378-0.401,0.573-0.939,0.54-1.49C123.907,124.396,121.744,89.419,115.212,79.395z M87.753,107.018c2.206,0,3.995-1.791,3.995-4  c0-1.507-0.842-2.803-2.071-3.484c0.044-0.165,0.075-0.336,0.075-0.516v-2.705c2.883,0.864,4.992,3.541,4.992,6.705  c0,3.859-3.137,7-6.991,7s-6.991-3.141-6.991-7c0-3.162,2.107-5.84,4.99-6.703v2.703c0,0.181,0.031,0.351,0.075,0.517  c-1.229,0.682-2.07,1.979-2.07,3.483C83.757,105.227,85.546,107.018,87.753,107.018z M8.045,124  c0.31-11.141,1.928-35.518,6.662-42.475c3.285-4.827,14.932-11.342,25.177-16.34c-0.08,0.76-0.133,1.541-0.133,2.359v2.792  c-8.15,2.507-14.308,19.604-15.377,26.423c-0.293,1.872,0.261,3.74,1.561,5.26c1.396,1.633,3.469,2.647,5.63,2.801  c1.303,0.826,5.368,1.438,5.368,1.438c1.063,0,1.926-0.863,1.926-1.93v-3.852c0-1.066-0.862-1.931-1.926-1.931  c0,0-5.775,0.863-5.775,1.931v0.248c-0.846-0.205-1.635-0.662-2.184-1.305c-0.374-0.438-0.789-1.145-0.648-2.041  c1.238-7.895,8.082-23.361,13.424-23.361S53.937,89.484,55.175,97.38c0.141,0.896-0.274,1.604-0.648,2.041  c-0.159,0.187-0.348,0.349-0.543,0.503c-1.398-0.797-5.275-1.377-5.275-1.377c-1.063,0-1.925,0.863-1.925,1.93v3.853  c0,1.065,0.861,1.93,1.925,1.93c0,0,5.774-0.862,5.774-1.93v-0.106c1.183-0.486,2.254-1.23,3.083-2.199  c1.3-1.521,1.854-3.389,1.561-5.262C58.058,89.943,51.9,72.846,43.75,70.338v-2.792c0-1.452,0.157-3.01,0.6-4.49  c3.713-1.729,7-3.16,9.294-4.107c0.749-0.309,1.237-1.039,1.237-1.849v-5.428c0-0.607-0.275-1.177-0.742-1.555  c-0.127-0.157-1.05-1.452-0.598-5.488c0.094-0.841-0.307-1.666-1.068-2.037c-0.762-0.37-1.629-0.236-2.232,0.356  c-0.016-0.005-1.574-0.679-2.854-7.428c-0.189-2.013,0.208-4.597,0.958-4.801c0.343-0.093,0.637-0.275,0.875-0.509  c1.087,0.975,2.338,1.29,2.338,1.29c1.869-1.512,1.406-5.986,1.406-5.986c-0.788-6.123,0.725-7.877,0.725-7.877  C61.5,6.75,76.75,5.75,83.75,20.449c1.425,2.993-1.375,10.313-0.198,13.257c0.729,1.825,2.679,0.086,4.056-1.5  c0.23,0.202,0.504,0.362,0.813,0.446c0.031,0.009,0.77,0.216,1.096,0.934c0.426,0.934,0.137,2.528-0.814,4.49  c-0.43,0.887-0.928,2.072-1.454,3.327c-0.442,1.055-0.905,2.155-1.349,3.127c-0.229,0.2-0.836,0.482-1.313,0.508  c-0.583-0.421-1.356-0.499-2.015-0.189c-0.738,0.344-1.193,1.102-1.151,1.915c0.001,0.025,0.088,2.613-1.448,4.739  c-0.199,0.275-0.324,0.596-0.365,0.932l-0.664,5.512c-0.101,0.83,0.326,1.634,1.07,2.017c1.262,0.65,2.896,1.521,4.752,2.543  c0.639,1.743,0.988,3.599,0.988,5.511V94.25c-3.997,0.914-6.99,4.494-6.99,8.768c0,4.963,4.033,9,8.991,9s8.991-4.037,8.991-9  c0-4.273-2.994-7.854-6.992-8.768V68.018c0-0.953-0.089-1.891-0.22-2.817c8.735,5.051,19.416,11.909,22.327,16.378  c5.104,7.831,7.423,34.656,7.998,42.423L8.045,124L8.045,124z" fill="#221F1F"/></svg>