<?xml version="1.0" ?><svg height="128" viewBox="0 0 128 128" width="128" xmlns="http://www.w3.org/2000/svg"><defs><style>
      .cls-1 {
        fill: #e9faff;
      }

      .cls-2 {
        fill: #fff;
      }

      .cls-3 {
        fill: #89d3ff;
      }

      .cls-4 {
        fill: #e8f0fc;
      }

      .cls-5 {
        fill: #7bc3ff;
      }

      .cls-6 {
        fill: #ff859e;
      }

      .cls-7 {
        fill: #f97594;
      }

      .cls-8 {
        fill: #ffdcb4;
      }

      .cls-10, .cls-11, .cls-9 {
        fill: none;
        stroke-miterlimit: 10;
        stroke-width: 2px;
      }

      .cls-9 {
        stroke: #556193;
      }

      .cls-10, .cls-11 {
        stroke: #c7dbf9;
      }

      .cls-11 {
        stroke-dasharray: 3.2 3.2;
      }
    </style></defs><title/><g id="circle"><circle class="cls-1" cx="64.5" cy="60.5" r="57.5"/></g><g id="icon"><g><g><g><rect class="cls-2" height="88" rx="3.65" width="55" x="34" y="7"/><path class="cls-3" d="M34,88H88a0,0,0,0,1,0,0v3.32A1.68,1.68,0,0,1,86.32,93H35.68A1.68,1.68,0,0,1,34,91.32V88a0,0,0,0,1,0,0Z"/><path class="cls-4" d="M87.12,93H85V14l4,1V92.12A2.79,2.79,0,0,1,87.12,93Z"/><path class="cls-5" d="M88.54,93A2.93,2.93,0,0,0,89,91.45V86H85v1.35A3.66,3.66,0,0,1,81.35,91H34v.33A3.23,3.23,0,0,0,34.49,93Z"/><path class="cls-3" d="M35,6H89a0,0,0,0,1,0,0v5.32A1.68,1.68,0,0,1,87.32,13H36.68A1.68,1.68,0,0,1,35,11.32V6A0,0,0,0,1,35,6Z" transform="translate(124 19) rotate(180)"/><path class="cls-5" d="M85,6h1.1A2.9,2.9,0,0,1,89,8.9V13a0,0,0,0,1,0,0H85a0,0,0,0,1,0,0V6A0,0,0,0,1,85,6Z"/></g><polygon class="cls-4" points="78 41 78 51 66 51 66 63 56 63 56 67 70 67 70 55 82 55 82 41 78 41"/><g><path class="cls-6" d="M87.9,82.54l-5.31-6.05A1.83,1.83,0,0,0,80,76.31L71.16,84a1.83,1.83,0,0,0-.26,2.49L76.6,94a8.28,8.28,0,0,0,10.58,2.26A61.44,61.44,0,0,0,108.34,76l-.08.13a61.43,61.43,0,0,0,9.08-27.85,8.28,8.28,0,0,0-6.62-8.55l-9.24-1.89a1.84,1.84,0,0,0-2.13,1.32l-3,11.26a1.82,1.82,0,0,0,1.31,2.25l7.72,2a2.73,2.73,0,0,1,2,3.41,59.22,59.22,0,0,1-6,13.65,59,59,0,0,1-9.55,11.13A2.73,2.73,0,0,1,87.9,82.54Z"/><g><path class="cls-7" d="M110.22,40.05,101,38.1a1.8,1.8,0,0,0-1.68.53l8.52,1.81a7.89,7.89,0,0,1,6.28,8,55.73,55.73,0,0,1-8.22,25.72l0,0-.08.11a.21.21,0,0,0,0-.06A55.71,55.71,0,0,1,86.31,92.73a7.9,7.9,0,0,1-9.94-2.19L71,83.62a1.77,1.77,0,0,0,.06,2.1l5.74,7.45a8.37,8.37,0,0,0,10.54,2.32,59.12,59.12,0,0,0,20.8-19.68,59.28,59.28,0,0,0,8.72-27.28A8.37,8.37,0,0,0,110.22,40.05Z"/><path class="cls-7" d="M108.4,75.86a.16.16,0,0,0,0,.07l0,.06Z"/></g><rect class="cls-7" height="14.8" transform="translate(15.91 -25.3) rotate(15.46)" width="5.65" x="98.33" y="38.56"/><rect class="cls-7" height="14.8" transform="matrix(0.66, 0.75, -0.75, 0.66, 88.55, -30.43)" width="5.65" x="75.06" y="75.2"/></g><polygon class="cls-8" points="79 42 67 42 67 29 57 29 57 42 45 42 45 52 57 52 57 64 67 64 67 52 79 52 79 42"/><path class="cls-4" d="M67.6,86.17a4.89,4.89,0,0,1,1.6-4.48L78.07,74a4.83,4.83,0,0,1,6.78.47l4.9,5.59-1.5,1.32-4.91-5.59a2.9,2.9,0,0,0-4-.27l-8.86,7.65a2.84,2.84,0,0,0-.94,2.62Z"/></g><g><path class="cls-9" d="M77,94H37.65A3.66,3.66,0,0,1,34,90.35V9.65A3.66,3.66,0,0,1,37.65,6h47.7A3.66,3.66,0,0,1,89,9.65V83"/><line class="cls-9" x1="35" x2="89" y1="14" y2="14"/><line class="cls-9" x1="35" x2="71" y1="87" y2="87"/><polygon class="cls-9" points="79 42 67 42 67 29 57 29 57 42 45 42 45 52 57 52 57 64 67 64 67 52 79 52 79 42"/><path class="cls-10" d="M81.19,96.93c-5.3,5.18,1.87,19.63,20.31,11,11.8-5.49,14.4,7.16,9.08,10.12"/><path class="cls-11" d="M76,117.27s15.25,14.31,32.84,2.37"/><path class="cls-9" d="M87.9,82.54l-5.31-6.05A1.83,1.83,0,0,0,80,76.31L71.16,84a1.83,1.83,0,0,0-.26,2.49L76.6,94a8.28,8.28,0,0,0,10.58,2.26A61.44,61.44,0,0,0,108.34,76l-.08.13a61.43,61.43,0,0,0,9.08-27.85,8.28,8.28,0,0,0-6.62-8.55l-9.24-1.89a1.84,1.84,0,0,0-2.13,1.32l-3,11.26a1.82,1.82,0,0,0,1.31,2.25l7.72,2a2.73,2.73,0,0,1,2,3.41,59.22,59.22,0,0,1-6,13.65,59,59,0,0,1-9.55,11.13A2.73,2.73,0,0,1,87.9,82.54Z"/><line class="cls-9" x1="105.64" x2="101.91" y1="38.95" y2="53.47"/><line class="cls-9" x1="86.19" x2="74.06" y1="79.48" y2="89.53"/></g></g></g></svg>